<svg xmlns="http://www.w3.org/2000/svg" width="64" height="64" viewBox="0 0 64 64">
  <rect width="64" height="64" rx="14" fill="#0e497b" />
  <svg x="13" y="13" width="38" height="38" viewBox="0 0 47 40">
    <path fill="#ffffff" fill-rule="evenodd" d="M11.3 18.3c3.4 0 6.4 5.4 7 14 .5-1.7.7-3.5.7-5.3 0-6.3-3-11.8-7-11.8-3.7 0-4 3-3.1 4.4.3-.5 1-1.4 2.4-1.4zm3.8 15.5c.2-.8.3-1.4.3-2.5C15.4 27.4 13 21 8.5 21c-3.4 0-3.9 3.3-2.8 4.3.3-.7 1-1.7 2.4-1.7 3.6 0 6.3 5.7 7 10.2zm22.5-14.2c.4-.5.5-1.1.5-1.6 0-1.4-1.4-2.9-3.4-2.9-6 0-8.2 10.5-6.5 17.1.6-9.1 3.6-14 7-14 1.7 0 2.3 1 2.4 1.4zm.2 1.4c-5.6 0-7.7 9.5-6.5 12.8.7-4.8 3.3-10.2 6.8-10.2 1.9 0 2.4 1.2 2.5 1.7 1.2-1.2.5-4.3-2.8-4.3zM24.2 37c-3.3 0-6.8.8-9.7 2.6v.1a64 64 0 0 1 9-.6c4.6 0 6.3.6 7 .6.6 0 .8-.3.8-.8 0-1.3-3.4-1.9-7-1.9zm0-3.5c-2.8 0-6.8.7-9.7 2.6 1.2-.1 5-.6 9.1-.6 4 0 6.3.7 7 .7.5 0 .7-.3.7-.8 0-1.4-3.4-2-7-2zm13.4-22.8c-.4.1-1 .8-1 1.7 0 1.1.8 3.4 4 3.4S46 13.3 46 10c0-3.2-2.3-6.3-7.6-6.3-6.2 0-14.2 5.6-14.2 19.1 0 2.6.3 5.4 1 8.5 0-16.7 6.3-24.5 13-24.5 2.9 0 4.5 1.8 4.5 3.8 0 1.7-1 3-2.7 3-2 0-2.7-1.8-2.4-2.9zm-29.2 2c-.2.5-1 1.1-2.2 1.1-1.6 0-2.8-1.3-2.8-3.1 0-1.7 1.4-3.4 4-3.4 6.3 0 13.8 9.2 13.9 20.9 0 .7 0 2-.2 3h.1c.7-2 1.2-5 1.2-7.2 0-10.2-6.9-20-15-20C2.4 4 0 7.3 0 10c0 3.3 1.9 5.7 4.8 5.7 2.3 0 3.6-1.6 3.6-3zM7.6.6c-.7 0-1 .4-1 .8 0 .6.4 1 1.1 1.2 2.3 1 6.6 1.5 11.5 1.5a70 70 0 0 0 21.4-2.8v-.2c-3.2.2-8.7.6-17.5.6C11.1 1.7 8.7.5 7.6.5zm6.9 4.6c1 .4 5.7 2.5 7.8 10.4.1.4.4.6.7.6.5 0 .7-.4.7-1 0-3.7-2-7-3.7-8.4a8.3 8.3 0 0 0-5.5-1.6zm11.7 1.1a7.1 7.1 0 0 1 6-2v.2c-.7.2-2.6.8-4.4 2.8a13.8 13.8 0 0 0-3 5.2c-.8-3.2.3-5.2 1.3-6.2z" />
  </svg>
</svg>
